<svg width="14" height="12" viewBox="0 0 14 12" fill="none" xmlns="http://www.w3.org/2000/svg">
<path d="M13.1978 4.73186H12.4513V1.36195C12.4513 0.661948 11.8876 0.092036 11.1876 0.0889387L2.81239 0.0517705C2.11549 0.0486732 1.54867 0.61239 1.54558 1.30929C1.54558 1.31549 1.54558 1.31858 1.54558 1.32478V4.73186H0.799115C0.365487 4.73186 0 5.08186 0 5.51858V6.48186C0 6.91858 0.365487 7.26859 0.802212 7.26859H1.54867V9.30044C1.54558 9.75266 1.78097 10.1739 2.16814 10.4062V11.1588C2.16814 11.5956 2.53673 11.9456 2.97345 11.9456H4.01106C4.44779 11.9487 4.80088 11.5956 4.80088 11.1619C4.80088 11.1619 4.80088 11.1619 4.80088 11.1588V10.5858H9.19911V11.1619C9.19911 11.5987 9.55221 11.9487 9.98894 11.9487C9.98894 11.9487 9.98894 11.9487 9.99204 11.9487H11.0265C11.4633 11.9487 11.8319 11.5987 11.8319 11.1619V10.4093C12.219 10.177 12.4544 9.75575 12.4513 9.30354V7.27168H13.1978C13.6345 7.27168 14 6.92168 14 6.48496V5.51858C14 5.08186 13.6345 4.73186 13.1978 4.73186ZM1.54867 6.65221H0.802212C0.706195 6.65531 0.625664 6.58097 0.619469 6.48496V5.51858C0.625664 5.42257 0.706195 5.34823 0.802212 5.35133H1.54867V6.65221ZM2.16504 1.6531V1.32478C2.16504 1.15133 2.23319 0.984071 2.35398 0.863275C2.47478 0.742478 2.63894 0.674337 2.80929 0.674337H2.81239L11.1845 0.711505C11.5438 0.714602 11.8319 1.00575 11.8288 1.36195V1.69646L2.16504 1.6531ZM4.18142 11.1619C4.18142 11.2549 4.10708 11.3292 4.01416 11.3292H4.01106H2.97345C2.87743 11.3292 2.78761 11.258 2.78761 11.1619V10.5765C2.81858 10.5765 2.80619 10.5858 2.81239 10.5858H4.18142V11.1619ZM11.2124 11.1619C11.2124 11.258 11.1226 11.3292 11.0265 11.3292H9.98894C9.89602 11.3323 9.81858 11.258 9.81858 11.165V11.1619V10.5858H11.1876C11.1907 10.5858 11.1814 10.5765 11.2124 10.5765V11.1619ZM11.8319 9.30044C11.8319 9.66283 11.55 9.96637 11.1876 9.96637H2.81239C2.4531 9.96637 2.16814 9.66283 2.16814 9.30354V5.9677L11.8319 6.01106V9.30044ZM3.54027 5.35443C3.72301 4.83407 4.29292 4.5646 4.81327 4.74735C5.10133 4.84956 5.32434 5.07566 5.42345 5.36372L3.54027 5.35443ZM11.8319 5.39159L6.0615 5.36682C5.88805 4.49336 5.03938 3.92965 4.16593 4.1031C3.53407 4.22699 3.0354 4.71947 2.90531 5.35133L2.16814 5.34823V2.27257L11.8319 2.31593V5.39159ZM13.3805 6.48496C13.3743 6.58097 13.2938 6.65531 13.1978 6.65221H12.4513V5.35133H13.1978C13.2938 5.34823 13.3743 5.42257 13.3805 5.51858V6.48496Z" fill="#CECECE"/>
</svg>
