<svg width="12" height="13" viewBox="0 0 12 13" fill="none" xmlns="http://www.w3.org/2000/svg">
<g clip-path="url(#clip0)">
<path d="M9.94541 5.59063C9.94541 8.83906 5.76885 11.6234 5.76885 11.6234C5.76885 11.6234 1.59229 8.83906 1.59229 5.59063C1.59229 4.48293 2.03231 3.42061 2.81557 2.63735C3.59883 1.85409 4.66115 1.41406 5.76885 1.41406C6.87654 1.41406 7.93887 1.85409 8.72212 2.63735C9.50538 3.42061 9.94541 4.48293 9.94541 5.59063Z" stroke="#4AD3A5" stroke-width="0.928125" stroke-linecap="round" stroke-linejoin="round"/>
<path d="M5.76884 6.98282C6.53772 6.98282 7.16102 6.35951 7.16102 5.59063C7.16102 4.82174 6.53772 4.19844 5.76884 4.19844C4.99995 4.19844 4.37665 4.82174 4.37665 5.59063C4.37665 6.35951 4.99995 6.98282 5.76884 6.98282Z" stroke="#4AD3A5" stroke-width="0.928125" stroke-linecap="round" stroke-linejoin="round"/>
</g>
<defs>
<clipPath id="clip0">
<rect width="11.1375" height="11.1375" fill="white" transform="translate(0.200073 0.949997)"/>
</clipPath>
</defs>
</svg>
