<svg width="87" height="87" viewBox="0 0 87 87" fill="none" xmlns="http://www.w3.org/2000/svg">
<path d="M86.5689 47.1192C86.5689 66.5904 67.6415 82.3761 44.2929 82.3761C20.9443 82.3761 0 69.1721 0 49.701C0 30.2298 9.43948 8.15112 43.4055 13.718C66.4458 17.4938 86.5689 27.6465 86.5689 47.1192Z" fill="#FA6A41"/>
<path d="M49.0932 25.2646C47.9088 23.8657 47.4909 21.9842 47.2214 20.1705C46.868 17.7873 46.705 15.3266 47.3069 12.9933C47.9088 10.6601 49.3739 8.4543 51.5587 7.44258C52.23 7.13116 52.9851 6.93753 53.7112 7.08114C55.6556 7.4684 56.3478 9.92266 56.2155 11.9009C56.0832 13.8792 55.5588 16.0123 56.5334 17.7389C56.7238 18.0761 56.9852 18.3972 57.345 18.5392C58.1163 18.841 58.9054 18.2342 59.6541 17.8809C61.8469 16.8417 64.8256 18.3762 65.2532 20.7643C65.7841 23.7253 62.9974 26.1763 62.1245 29.0566C66.3327 30.0215 70.2134 32.366 73.0242 35.6448C74.1828 36.997 75.1832 38.9769 74.2135 40.4711C73.7923 41.1181 73.0839 41.5118 72.3885 41.8491C70.6523 42.6946 68.8273 43.3578 66.9539 43.8257C69.0322 45.0456 70.741 47.3304 70.3602 49.7088C70.2828 50.1881 70.1182 50.6641 69.8084 51.0352C69.1758 51.7952 68.0447 51.9775 67.0846 51.7387C66.1245 51.5015 65.2936 50.9174 64.4868 50.3462C65.0499 51.7533 63.7494 53.5298 62.239 53.4201C61.8695 53.3927 61.4694 53.2797 61.1466 53.4604C60.8062 53.6508 60.7013 54.0784 60.5367 54.4318C59.98 55.6323 57.7032 57.5815 56.6367 56.7989C51.2053 52.8166 49.5369 56.7989 48.5236 50.8093C48.4009 50.088 48.1379 49.2183 48.7253 48.781C48.9883 48.5858 49.3303 48.5438 49.6515 48.4744C51.5684 48.0581 53.0126 46.5269 54.3276 45.073C55.938 43.2932 57.608 41.4021 58.1438 39.0624C58.5472 37.302 58.2632 35.4593 57.8436 33.7037C57.3144 31.4866 56.2623 29.0098 54.0614 28.4127C52.8996 28.0981 51.6426 28.3918 50.476 28.0997C48.8995 27.706 47.7474 26.2812 47.2295 24.7418C46.7115 23.2025 46.7196 21.5421 46.7341 19.9188" fill="black"/>
<path d="M47.1811 27.9143C49.7064 26.4298 53.1369 27.2608 55.2394 29.3004C57.3419 31.3399 58.2923 34.3186 58.5601 37.2344C58.87 40.5955 58.1971 44.3406 55.6073 46.5044C53.5806 48.1987 50.7843 48.5989 48.1444 48.6908C46.6115 48.7441 45.0254 48.7053 43.6248 48.0793C43.3763 47.9679 43.1246 47.8292 42.9729 47.6017C42.7712 47.2967 42.7922 46.903 42.8019 46.5383C42.8567 44.4197 42.2613 42.2897 41.1157 40.5067C40.5283 39.5934 39.7909 38.7479 39.4682 37.712C39.2358 36.9697 39.2342 36.1726 39.3375 35.4013C39.8748 31.3948 43.5441 28.0434 47.5829 27.8691" fill="#FA6A41"/>
<path d="M35.0601 60.6926C32.4848 59.2549 30.8212 56.6038 29.6271 53.9075C27.7973 49.7719 26.1531 45.0876 27.2552 40.7019C28.3992 36.1468 30.0128 32.2741 32.9963 28.7468C33.3029 28.3854 33.7208 28.1159 33.9499 27.7012C34.1903 27.2656 34.2517 26.7541 34.4598 26.3023C34.9148 25.3196 35.9717 24.7871 36.9544 24.3305C37.3626 24.1401 37.8483 23.9497 38.2453 24.1643C37.5789 23.827 38.5341 22.9718 39.0488 22.4313C39.5539 21.9004 39.5604 21.1307 40.2671 20.9403C41.1965 20.6902 44.4495 20.9258 42.9215 21.4631C42.2421 21.752 40.8238 21.4631 40.2074 22.2748C41.1191 22.5442 41.679 23.5172 41.7613 24.4644C41.8436 25.4116 41.5483 26.3458 41.2562 27.2511C41.0223 27.9772 40.2639 29.4326 39.5345 29.2083C38.8891 29.5311 39.2602 29.9215 38.7277 30.1765C37.858 30.5928 36.7769 31.3705 35.9846 30.8219C35.7846 30.6832 35.833 29.8877 35.5893 29.9119C35.3925 29.9312 34.6534 29.6956 34.5324 29.8538C32.6461 32.3145 31.962 35.8289 31.4666 38.8898C30.6614 43.8726 31.0229 49.4201 33.9306 53.5444C34.6534 54.5707 35.5506 55.4759 36.1799 56.5635C36.8092 57.651 37.1448 59.0129 36.6398 60.1634C36.2719 60.9992 35.1198 61.6204 34.4598 60.9911" fill="#FA6A41"/>
<path d="M45.1805 56.9621C42.6213 55.931 40.4785 56.3328 37.7999 56.9959C37.7225 58.9581 37.2271 61.1477 36.9512 63.0937C37.758 63.4164 40.8238 62.6096 40.9851 62.6096C41.637 62.6096 40.6882 63.4826 40.6624 64.1344C40.4527 69.2818 40.2429 74.4275 40.0331 79.5748C39.9541 81.5144 39.8766 83.4797 40.2977 85.3741C40.3768 85.7307 40.4785 86.0937 40.7011 86.3826C41.4353 87.3346 42.915 86.9925 44.0622 86.6311C46.6924 85.8001 49.4452 85.3563 52.2044 85.3192C54.8668 85.2821 57.7325 85.5725 59.998 84.172C60.3659 83.9444 60.7257 83.654 60.8726 83.2474C60.9533 83.0231 60.3433 83.0182 60.3514 82.7794C60.4434 80.1751 60.829 82.9214 60.3514 80.3591C59.7753 77.2707 59.1138 72.1265 58.4151 69.064C58.3489 68.7767 57.7697 66.6436 57.2856 65.3527C57.0887 64.8283 60.0287 63.4939 60.0287 62.9323C60.0287 62.771 59.0428 61.0251 58.5764 60.3506C57.2711 58.4611 55.4622 56.7071 53.413 55.6712C51.3637 54.6353 52.4448 61.4801 45.9905 57.6075" fill="white"/>
<path d="M48.3737 22.8735C47.3281 21.1212 46.9667 19.1348 47.1797 17.1162C47.4056 14.9686 48.1882 12.8967 49.0547 10.933C49.2902 10.4005 49.5355 9.87124 49.7872 9.34521C49.9889 8.92245 50.1858 8.50292 50.4488 8.11404C50.9297 7.40084 51.5622 6.76992 52.2818 6.29714C52.9482 5.85825 53.7373 5.51939 54.5505 5.5791C55.3428 5.63719 55.9592 6.12772 56.3142 6.81833C56.6805 7.52831 56.8096 8.35608 56.9064 9.14028C57.0403 10.2343 57.0823 11.3299 57.0435 12.432C57.0016 13.6051 56.887 14.7749 56.7854 15.9432C56.7224 16.6709 56.461 17.8633 57.1613 18.3877C57.5405 18.6701 58.0068 18.5685 58.3941 18.3619C58.8169 18.136 59.209 17.8585 59.6366 17.6374C60.4853 17.1985 61.3954 16.8613 62.3409 16.6999C64.1046 16.3982 65.9763 16.9032 66.9574 18.491C67.8255 19.8964 67.8707 21.7182 67.3769 23.2608C66.7751 25.1422 65.4148 26.6864 64.0433 28.058C63.6883 28.413 63.3284 28.7599 62.9654 29.1068C62.8186 29.2472 62.9251 29.5312 63.1364 29.5199C66.6783 29.3408 70.262 30.6026 72.7921 33.1166C73.9684 34.2848 74.8946 35.7112 75.4126 37.2909C75.5401 37.6782 75.6433 38.0751 75.7224 38.4753C75.8176 38.9593 75.916 39.4676 75.8951 39.9614C75.8466 41.128 74.6235 41.5927 73.7135 42.009C71.3786 43.0788 68.8485 43.7178 66.2878 43.9034C66.3281 44.0534 66.3684 44.2035 66.4104 44.3552C67.3898 43.8856 68.5355 44.339 69.2664 45.0539C70.1604 45.9268 70.4508 47.2306 70.5767 48.4311C70.6396 49.0217 70.6896 49.6235 70.6912 50.2173C70.6929 50.745 70.6412 51.3678 70.2346 51.7551C69.8054 52.1633 69.147 52.1311 68.6065 52.0229C68.0369 51.91 67.477 51.7244 66.9477 51.484C65.7149 50.9257 64.6193 50.0737 63.7915 49.0023C63.7012 49.1201 63.6092 49.2395 63.5189 49.3573C64.7097 49.6671 65.1276 51.271 64.529 52.2618C63.7786 53.5026 61.8794 53.4881 60.8355 52.6668C60.6386 52.5119 60.3949 52.6555 60.4304 52.9023C60.7322 54.9661 57.9649 56.6281 56.2609 55.4986C56.0012 55.326 55.7575 55.7455 56.0173 55.9165C58.115 57.309 61.2566 55.2227 60.8984 52.7749C60.7628 52.8539 60.6289 52.9314 60.4934 53.0105C61.5245 53.8221 63.0816 54.0093 64.2062 53.2638C65.2502 52.5716 65.5391 51.2323 65.0372 50.1125C64.7726 49.5219 64.2788 49.0572 63.6463 48.8926C63.4624 48.8442 63.2365 49.0717 63.3736 49.2476C64.203 50.3238 65.2647 51.2065 66.4895 51.8035C67.0962 52.0988 67.74 52.3344 68.4016 52.4747C69.0131 52.6054 69.7021 52.6555 70.2636 52.3311C71.4464 51.6518 71.1882 49.9446 71.093 48.8151C70.9785 47.442 70.7251 45.9575 69.7763 44.8925C68.8889 43.8969 67.4237 43.3338 66.1619 43.9389C65.9473 44.0421 66.049 44.4068 66.2845 44.3907C68.7017 44.2164 71.0801 43.6533 73.3133 42.7126C73.8506 42.485 74.3863 42.2446 74.9011 41.9687C75.3335 41.7363 75.7531 41.4556 76.0387 41.0473C76.3565 40.5939 76.4098 40.0372 76.3598 39.4983C76.3146 39.0158 76.2323 38.5301 76.1242 38.0574C75.3238 34.5381 72.6469 31.6853 69.4052 30.2202C67.4415 29.3327 65.2857 28.9293 63.1348 29.039C63.1913 29.1762 63.2494 29.3149 63.3059 29.4521C64.7904 28.0273 66.3168 26.5541 67.2801 24.7098C68.1127 23.1188 68.4371 21.2486 67.9239 19.5011C67.4189 17.781 66.0522 16.4789 64.2595 16.1997C62.3264 15.898 60.3369 16.6176 58.7023 17.6068C58.3715 17.8069 57.7583 18.3393 57.3921 17.9521C57.1323 17.6778 57.171 17.1743 57.1952 16.8274C57.2807 15.5898 57.4227 14.3554 57.4937 13.1162C57.5615 11.9124 57.5647 10.7071 57.4308 9.50818C57.3372 8.67073 57.2355 7.81069 56.9274 7.02003C56.6369 6.27455 56.1561 5.61621 55.4009 5.29833C54.649 4.98207 53.8018 5.06114 53.0564 5.3532C52.2141 5.68237 51.4638 6.2326 50.8377 6.87965C50.1761 7.56381 49.7324 8.33994 49.3258 9.19353C47.5234 12.9855 45.6032 17.5342 47.2604 21.7166C47.454 22.2039 47.6863 22.6718 47.9542 23.122C48.1156 23.385 48.5335 23.1414 48.3737 22.8735Z" fill="black"/>
<path d="M46.1146 20.4531C45.5127 19.1041 45.069 17.6826 44.7205 16.2481C44.3219 14.6135 44.054 12.9435 43.9476 11.2637C43.8459 9.63883 43.8846 7.9849 44.2122 6.38584C44.4946 5.00461 44.9996 3.6137 45.9194 2.52453C46.8407 1.43374 48.1058 0.7754 49.5096 0.551111C49.7048 0.520453 49.9017 0.499476 50.1002 0.484954C50.4083 0.46075 50.4116 -0.0233258 50.1002 0.000877954C48.5656 0.11867 47.0973 0.662448 45.9823 1.74678C44.927 2.77463 44.2816 4.15264 43.9072 5.5613C43.4812 7.16843 43.3731 8.85785 43.4264 10.515C43.4828 12.2609 43.7233 14.0036 44.0976 15.7091C44.4332 17.2372 44.8786 18.7507 45.4805 20.1965C45.5498 20.3643 45.6208 20.5305 45.6951 20.6951C45.8242 20.9807 46.2405 20.7355 46.1146 20.4531Z" fill="black"/>
<path d="M42.5988 19.2849C42.652 17.8569 41.6096 16.6145 40.6044 15.7221C39.3668 14.6233 37.8968 13.7681 36.3607 13.1598C34.7777 12.5337 32.985 12.2384 31.3489 12.8564C30.4598 13.192 29.6917 13.781 29.2141 14.6136C28.7752 15.3801 28.588 16.3143 28.8171 17.1776C29.0527 18.0651 29.7385 18.7299 30.6002 19.0203C31.4215 19.2962 32.3541 19.1817 33.006 18.5879C33.0948 18.5072 33.1061 18.3233 33.006 18.2458C32.1202 17.5536 30.9987 17.3712 29.8999 17.4422C28.8268 17.5116 27.7554 17.773 26.7453 18.1377C24.7219 18.8686 22.8743 20.0821 21.4092 21.6601C19.8617 23.3286 18.7774 25.394 18.2578 27.6094C17.7415 29.8104 17.7463 32.1969 18.4144 34.3655C18.9888 36.2324 20.1538 38.1123 22.0223 38.8949C22.2498 38.9901 22.4838 39.0659 22.7226 39.124C23.026 39.1966 23.1551 38.7303 22.8517 38.6577C20.9606 38.1994 19.7085 36.5084 19.0598 34.7657C18.3208 32.7778 18.2062 30.5381 18.5757 28.4598C18.9533 26.3299 19.8488 24.2903 21.2188 22.6122C22.5096 21.0325 24.1716 19.7723 26.0353 18.9396C27.0761 18.4749 28.1927 18.1409 29.3222 17.9828C30.4436 17.8247 31.7313 17.8585 32.6639 18.5863C32.6639 18.4717 32.6639 18.3588 32.6639 18.2442C31.6054 19.2123 29.7595 18.4782 29.3335 17.2099C29.0802 16.4547 29.2157 15.6221 29.5917 14.9315C30.0015 14.1763 30.6792 13.6245 31.4796 13.3211C32.9834 12.7515 34.6083 13.0065 36.0718 13.5632C37.4595 14.0892 38.7972 14.8476 39.9444 15.7899C40.9707 16.6338 42.1696 17.8472 42.1163 19.2849C42.1034 19.5964 42.5875 19.5948 42.5988 19.2849Z" fill="black"/>
<path d="M32.8672 44.4455C31.9943 46.2575 31.365 48.5553 32.622 50.3496C33.1061 51.0402 33.8257 51.6098 34.6729 51.7566C35.5587 51.9083 36.4123 51.6017 37.09 51.0338C37.8597 50.3867 38.3776 49.467 38.7117 48.5311C38.7859 48.3245 38.5293 48.1583 38.3567 48.2584C37.0997 48.9764 36.4381 50.4916 36.6398 51.9067C36.8431 53.3444 38.013 54.4287 39.4152 54.7047C40.2091 54.8612 41.0352 54.7676 41.7517 54.3836C42.026 54.2367 41.7823 53.8188 41.508 53.9656C40.4317 54.5401 39.0166 54.3384 38.0888 53.5622C37.1094 52.7442 36.8657 51.4146 37.2965 50.2415C37.537 49.588 37.9952 49.0216 38.6003 48.6747C38.4825 48.5843 38.3631 48.4924 38.2453 48.402C37.758 49.7687 36.6576 51.4017 35.0165 51.3129C34.2646 51.2726 33.5982 50.8192 33.1416 50.2415C32.6204 49.5831 32.3896 48.7683 32.3929 47.9373C32.3977 46.8013 32.7979 45.7025 33.2868 44.6908C33.4191 44.41 33.0028 44.1647 32.8672 44.4455Z" fill="black"/>
<path d="M45.8823 48.9813C46.3906 50.8143 46.7101 52.6942 46.8295 54.5934C46.8489 54.9032 47.333 54.9048 47.3136 54.5934C47.191 52.6522 46.8699 50.7256 46.3487 48.8522C46.2664 48.5537 45.7984 48.6812 45.8823 48.9813Z" fill="black"/>
<path d="M47.6413 27.753C50.0923 27.5626 52.7192 27.7465 54.7798 29.2278C56.6854 30.5977 57.781 32.7841 58.3151 35.0189C58.896 37.4474 58.675 39.9162 57.8666 42.2656C57.5148 43.2886 57.1179 44.2971 56.4014 45.1232C55.7673 45.8526 54.9831 46.4351 54.1408 46.9014C52.1625 47.997 49.8632 48.4972 47.6154 48.5666C47.3137 48.5763 47.012 48.5763 46.7118 48.5714C46.4004 48.565 46.4004 49.0491 46.7118 49.0555C49.1032 49.1039 51.5445 48.6844 53.7164 47.663C54.6652 47.216 55.5656 46.6416 56.3207 45.9123C56.6612 45.5831 56.971 45.22 57.2389 44.8263C57.5406 44.381 57.7552 43.8969 57.9569 43.3999C58.9444 40.9731 59.4011 38.3784 58.9622 35.7757C58.562 33.3941 57.5487 31.0156 55.7269 29.3762C53.7777 27.6223 51.1621 27.1333 48.6126 27.214C48.2883 27.2237 47.964 27.2431 47.6396 27.2689C47.3331 27.2915 47.3298 27.7772 47.6413 27.753Z" fill="black"/>
<path d="M47.9188 35.6515C47.6057 35.8225 47.6154 36.334 47.9285 36.5002C48.0075 36.5422 48.0947 36.5631 48.1818 36.5276C48.2302 36.5067 48.2722 36.4712 48.306 36.4308C48.3641 36.3614 48.4012 36.2969 48.4335 36.2114C48.4819 36.0807 48.4787 35.9355 48.4529 35.7999C48.3996 35.5385 48.1979 35.2884 47.9349 35.2223C47.6348 35.1464 47.3427 35.3013 47.1862 35.5579C47.0184 35.8354 47.02 36.2162 47.2572 36.4534C47.3282 36.526 47.4621 36.5502 47.5509 36.4905C47.8365 36.2985 47.9865 35.9226 47.8768 35.5885C47.8575 35.5305 47.8333 35.4611 47.7881 35.4175C47.751 35.382 47.7009 35.3481 47.6509 35.3352C47.5509 35.3094 47.446 35.3336 47.3718 35.4078C47.2766 35.5046 47.2556 35.6611 47.2879 35.7886C47.3088 35.8725 47.3589 35.9419 47.4331 35.9871C47.5525 36.0597 47.688 36.0145 47.7848 35.929C47.8801 35.8451 47.8768 35.6708 47.7848 35.5869C47.6832 35.4933 47.5444 35.4982 47.4428 35.5869C47.417 35.6095 47.5009 35.5466 47.4702 35.5643C47.4492 35.5756 47.5444 35.5401 47.5089 35.5466C47.5299 35.5434 47.5525 35.5401 47.5735 35.5385C47.5702 35.5385 47.5686 35.5385 47.5654 35.5385C47.5864 35.5417 47.609 35.545 47.6299 35.5466C47.6283 35.5466 47.6251 35.5466 47.6235 35.545C47.659 35.5579 47.6896 35.574 47.7171 35.5998C47.6929 35.5772 47.7558 35.6579 47.7413 35.6305C47.7397 35.6273 47.7639 35.7031 47.7574 35.666C47.7558 35.6579 47.7542 35.6499 47.7526 35.6434C47.7558 35.6644 47.759 35.687 47.7606 35.7079C47.7574 35.687 47.7574 35.666 47.7606 35.6466C47.7574 35.6676 47.7542 35.6902 47.7526 35.7112C47.7542 35.7031 47.7542 35.695 47.7574 35.687C47.7639 35.6611 47.7816 35.6499 47.7413 35.7192C47.7606 35.687 47.7187 35.7467 47.7155 35.7499C47.7009 35.766 47.6525 35.7935 47.6299 35.7983C47.609 35.8015 47.5864 35.8048 47.5654 35.8064C47.5686 35.8064 47.5719 35.8064 47.5767 35.8064C47.5557 35.8031 47.5331 35.7999 47.5122 35.7983C47.546 35.8048 47.4476 35.7676 47.4783 35.7838C47.4605 35.7741 47.4315 35.7434 47.4137 35.7209C47.4153 35.7241 47.417 35.7273 47.4186 35.7321C47.4024 35.6934 47.3992 35.6837 47.4057 35.7015C47.417 35.737 47.4266 35.7709 47.4331 35.808C47.4299 35.787 47.4266 35.7644 47.425 35.7434C47.4315 35.7935 47.4315 35.8435 47.425 35.8951C47.4282 35.8741 47.4315 35.8516 47.4331 35.8306C47.4282 35.8661 47.4202 35.9 47.4105 35.9338C47.4073 35.9435 47.404 35.9516 47.4008 35.9613C47.3927 35.9855 47.4282 35.9016 47.4089 35.9419C47.4008 35.9581 47.3928 35.9726 47.3847 35.9887C47.3766 36.0032 47.3669 36.0178 47.3556 36.0323C47.3363 36.0597 47.3718 36.0145 47.3718 36.0113C47.3702 36.0194 47.3572 36.0274 47.3524 36.0339C47.3411 36.0468 47.3282 36.0597 47.3153 36.071C47.3088 36.0758 47.304 36.0807 47.2975 36.0855C47.3492 36.0387 47.325 36.0645 47.3088 36.0758C47.4073 36.0887 47.5041 36.1017 47.6025 36.113C47.5928 36.1033 47.5848 36.0952 47.5767 36.0855C47.5525 36.0581 47.6122 36.1372 47.5928 36.1049C47.5815 36.0887 47.5719 36.071 47.5638 36.0533C47.5412 36.0113 47.5848 36.1113 47.5719 36.0726C47.5686 36.0645 47.5654 36.0549 47.5638 36.0468C47.5573 36.0258 47.5541 36.0048 47.5509 35.9839C47.5541 36.0048 47.5573 36.0274 47.5589 36.0484C47.5525 36.0016 47.5541 35.9564 47.5589 35.9096C47.5557 35.9306 47.5525 35.9532 47.5509 35.9742C47.5541 35.9484 47.5606 35.9209 47.567 35.8967C47.5702 35.8838 47.5735 35.8725 47.5783 35.8612C47.5815 35.8499 47.6009 35.8064 47.5815 35.8499C47.5622 35.8951 47.5848 35.8467 47.5896 35.8354C47.5961 35.8241 47.6009 35.8128 47.609 35.8031C47.6154 35.7918 47.6219 35.7822 47.6299 35.7709C47.6606 35.7273 47.5944 35.8112 47.6235 35.7789C47.6396 35.7612 47.6558 35.7418 47.6751 35.7257C47.68 35.7209 47.6848 35.7176 47.6896 35.7144C47.7074 35.6966 47.6412 35.7499 47.6622 35.7354C47.6735 35.7273 47.6848 35.7192 47.6961 35.7128C47.7058 35.7063 47.7171 35.6999 47.7284 35.695C47.7332 35.6918 47.7413 35.6902 47.7445 35.687C47.7445 35.687 47.6832 35.7096 47.7122 35.7015C47.7381 35.6934 47.7639 35.6854 47.7913 35.6821C47.7703 35.6854 47.7477 35.6886 47.7268 35.6902C47.7606 35.6854 47.7961 35.6854 47.83 35.6902C47.8091 35.687 47.7865 35.6837 47.7655 35.6821C47.7913 35.6854 47.8155 35.6918 47.8413 35.6999C47.8462 35.7015 47.8526 35.7047 47.8575 35.7063C47.8817 35.7144 47.8026 35.6805 47.8236 35.6934C47.8333 35.6999 47.8446 35.7047 47.8558 35.7096C47.8671 35.716 47.8784 35.7241 47.8897 35.7321C47.9139 35.7483 47.8623 35.7112 47.8623 35.7112C47.8655 35.716 47.872 35.7192 47.8768 35.7225C47.8962 35.7402 47.9139 35.758 47.9301 35.7773C47.9591 35.8112 47.8962 35.7273 47.9204 35.7644C47.9268 35.7741 47.9349 35.7854 47.9414 35.7951C47.9543 35.8161 47.9623 35.8451 47.9785 35.8645C47.9785 35.8645 47.9543 35.8031 47.964 35.8322C47.9656 35.8386 47.9688 35.8435 47.9704 35.8499C47.9753 35.8612 47.9785 35.8741 47.9817 35.8854C47.9898 35.9129 47.9946 35.9403 47.9995 35.9677C47.9962 35.9468 47.993 35.9242 47.9914 35.9032C47.9978 35.9516 47.9978 36 47.9914 36.0484C47.9946 36.0274 47.9978 36.0048 47.9995 35.9839C47.9962 36.0081 47.9914 36.0307 47.9849 36.0533C47.9817 36.0645 47.9769 36.0758 47.9736 36.0871C47.9978 36.0113 47.9914 36.0452 47.9817 36.0662C47.9688 36.0904 47.9188 36.1485 47.9785 36.0807C47.9623 36.1 47.9462 36.1178 47.9268 36.1339C48.0059 36.113 48.0834 36.092 48.1624 36.071C48.1108 36.0565 48.2092 36.0984 48.1786 36.0791C48.1592 36.0662 48.1495 36.0484 48.1979 36.0968C48.1915 36.0904 48.185 36.0855 48.1786 36.0791C48.1447 36.0436 48.2012 36.1146 48.1915 36.0968C48.1866 36.0871 48.1802 36.0791 48.1753 36.071C48.1576 36.0387 48.1963 36.1323 48.1866 36.0968C48.1802 36.0758 48.1753 36.0565 48.1721 36.0355C48.1753 36.0565 48.1786 36.0791 48.1802 36.1C48.177 36.0758 48.177 36.0516 48.1802 36.0274C48.177 36.0484 48.1737 36.071 48.1721 36.092C48.1737 36.0775 48.177 36.0629 48.1818 36.0484C48.1963 35.9968 48.1511 36.1081 48.1802 36.0549C48.1995 36.0161 48.135 36.1065 48.1737 36.0629C48.1979 36.0355 48.1544 36.0807 48.1479 36.0807C48.1544 36.0807 48.1657 36.0694 48.1705 36.0662C48.2818 36.0048 48.327 35.8419 48.2576 35.7354C48.177 35.6257 48.0382 35.5869 47.9188 35.6515Z" fill="black"/>
<path d="M46.3794 29.799C47.02 31.887 46.2793 34.2622 44.5786 35.6273C44.335 35.8225 44.6803 36.163 44.9207 35.9694C46.7473 34.5026 47.5331 31.9064 46.8457 29.6699C46.7537 29.373 46.2874 29.4989 46.3794 29.799Z" fill="black"/>
<path d="M50.7877 33.9958C50.394 34.9688 50.686 36.0822 51.3331 36.8745C51.659 37.2746 52.085 37.5877 52.5675 37.77C52.8014 37.8571 53.0483 37.9072 53.2968 37.9201C53.413 37.9265 53.626 37.891 53.7163 37.9846C53.7938 38.0637 53.7357 38.1912 53.6921 38.2751C53.5308 38.5833 53.1822 38.7946 52.8918 38.9689C52.5594 39.1674 52.206 39.3174 51.8333 39.4223C51.5348 39.5078 51.6606 39.9742 51.9624 39.8887C52.6352 39.6983 53.2903 39.3675 53.8099 38.8963C54.2165 38.5284 54.5021 37.6958 53.7809 37.4828C53.5082 37.4021 53.2129 37.4505 52.9354 37.3795C52.6853 37.315 52.4545 37.2053 52.2415 37.0617C51.8091 36.7712 51.4686 36.3307 51.275 35.8482C51.0507 35.2915 51.0281 34.6848 51.2556 34.1265C51.3718 33.8361 50.9039 33.7102 50.7877 33.9958Z" fill="black"/>
<path d="M49.1209 42.1236C50.2972 41.9509 51.4654 43.0336 51.4461 44.2019C51.4412 44.5133 51.9253 44.5133 51.9301 44.2019C51.956 42.6883 50.4715 41.4394 48.9934 41.6572C48.8643 41.6766 48.7933 41.8396 48.824 41.9557C48.8611 42.0929 48.9902 42.1413 49.1209 42.1236Z" fill="black"/>
<path d="M50.56 34.7495C49.971 32.931 48.2413 31.1254 46.1856 31.3142C44.1089 31.5046 42.8212 33.5619 42.6776 35.4933C42.5276 37.5071 43.4764 39.5644 45.0706 40.794C45.7886 41.349 46.7019 41.7541 47.6281 41.5959C48.5043 41.4459 49.4628 41.0376 49.9129 40.2341C50.1243 39.8581 50.2954 39.4579 50.3857 39.0352C50.4906 38.5382 50.5067 38.0251 50.5051 37.52C50.5019 36.5454 50.2841 35.5111 49.8129 34.6527C49.7 34.4461 49.5644 34.2541 49.4095 34.0782C49.2046 33.8426 48.8625 34.1863 49.0674 34.4203C49.6435 35.0787 49.8904 36.0484 49.9856 36.8988C50.0775 37.7282 50.0646 38.6544 49.7613 39.4418C49.6306 39.7839 49.4531 40.1631 49.1772 40.4116C48.8722 40.6843 48.4704 40.8601 48.0848 40.986C47.7298 41.1006 47.3619 41.1909 46.9891 41.1377C46.5793 41.078 46.1775 40.9473 45.8257 40.7327C44.2896 39.7919 43.2747 38.0525 43.1601 36.2598C43.052 34.572 43.833 32.5405 45.553 31.9435C47.5894 31.2351 49.5063 33.0649 50.0937 34.8818C50.1889 35.1722 50.6568 35.0464 50.56 34.7495Z" fill="black"/>
<path d="M43.0117 36.7019C42.4614 36.0532 41.6885 35.5869 40.9156 35.2529C40.0749 34.8882 39.1907 34.6801 38.271 34.7027C37.3512 34.7252 36.3524 35.0754 35.9861 35.9968C35.6666 36.7987 36.1539 37.7152 36.9769 37.9492C37.4077 38.0718 37.8256 37.946 38.0967 37.5861C38.3307 37.2763 38.3613 36.8261 37.9805 36.618C37.7062 36.4695 37.4625 36.8875 37.7369 37.0359C37.9079 37.1295 37.6562 37.3764 37.5626 37.4409C37.3254 37.6007 37.0043 37.4813 36.7945 37.328C36.2265 36.9133 36.2749 36.1791 36.751 35.716C37.3189 35.1625 38.1806 35.1496 38.9228 35.2061C39.5957 35.2577 40.2653 35.4756 40.8753 35.7596C41.5417 36.071 42.1936 36.4776 42.6744 37.044C42.8713 37.2812 43.2118 36.9375 43.0117 36.7019Z" fill="black"/>
<path d="M54.5617 34.4316C54.3197 34.4122 54.1341 34.5994 54.0551 34.8092C53.9792 35.0157 54.0373 35.261 54.2116 35.3965C54.4601 35.5885 54.7312 35.282 54.7925 35.0528C54.8425 34.8657 54.8118 34.6656 54.7263 34.4945C54.6247 34.2928 54.4246 34.1605 54.1987 34.1541C54.0857 34.1508 54.0002 34.2331 53.9647 34.3316C53.8275 34.7172 54.0276 35.2045 54.4004 35.3755C54.5165 35.4288 54.6634 35.4127 54.7312 35.2884C54.97 34.8608 54.807 34.2589 54.3665 34.0298C54.26 33.9733 54.0922 33.9927 54.0357 34.117C53.8937 34.4235 53.855 34.7608 53.9389 35.0899C53.9695 35.2126 54.1148 35.2981 54.2374 35.2594C54.3649 35.219 54.4391 35.0932 54.4068 34.9609C54.3988 34.9302 54.3923 34.8995 54.3875 34.8689C54.381 34.8318 54.3891 34.8495 54.3875 34.8737C54.3891 34.8592 54.3842 34.8382 54.3826 34.8221C54.3778 34.7592 54.3778 34.6962 54.3826 34.6333C54.3826 34.6252 54.3842 34.5752 54.3842 34.6139C54.3826 34.6527 54.3858 34.6043 54.3875 34.5946C54.3939 34.5607 54.4004 34.5268 54.41 34.4945C54.4181 34.4671 54.4262 34.4397 54.4343 34.4122C54.4375 34.4042 54.4536 34.3719 54.452 34.3638C54.4488 34.3719 54.4439 34.3816 54.4407 34.3896C54.4455 34.3784 54.4504 34.3687 54.4552 34.359C54.3455 34.388 54.2342 34.4171 54.1244 34.4461C54.1422 34.4558 54.1616 34.4655 54.1793 34.4768C54.1874 34.4816 54.1954 34.4897 54.2051 34.4945C54.2293 34.5091 54.1616 34.4574 54.1906 34.4832C54.2213 34.5107 54.2471 34.5445 54.2777 34.572C54.2664 34.5623 54.2439 34.5252 54.2664 34.5575C54.2729 34.5655 54.2777 34.5752 54.2842 34.5833C54.2955 34.601 54.3052 34.6188 54.3148 34.6381C54.3197 34.6478 54.3245 34.6575 54.3294 34.6656C54.3391 34.6849 54.3374 34.7075 54.3229 34.6478C54.3278 34.6672 54.3374 34.6865 54.3439 34.7075C54.3504 34.7269 54.3552 34.7479 54.36 34.7688C54.3616 34.7769 54.3633 34.785 54.3649 34.793C54.3746 34.8398 54.36 34.7301 54.3633 34.7785C54.3665 34.8189 54.3681 34.8576 54.3649 34.8963C54.3649 34.906 54.3616 34.9173 54.3616 34.927C54.3616 34.8608 54.3681 34.885 54.3633 34.906C54.3584 34.927 54.3552 34.9463 54.3487 34.9657C54.3455 34.9754 54.3423 34.9851 54.3391 34.9947C54.3358 35.0044 54.3197 35.0399 54.3374 35.0012C54.3552 34.9625 54.3391 34.998 54.3342 35.006C54.3294 35.0173 54.3229 35.0286 54.3165 35.0399C54.4262 35.0109 54.5375 34.9818 54.6472 34.9528C54.615 34.9383 54.5859 34.9205 54.5569 34.9012C54.5295 34.8834 54.5698 34.9092 54.5746 34.9157C54.5698 34.9092 54.5601 34.9044 54.5553 34.8995C54.5424 34.8882 54.5295 34.8753 54.5182 34.864C54.5069 34.8511 54.4956 34.8366 54.4843 34.8253C54.4891 34.8302 54.5165 34.8705 54.4988 34.8431C54.494 34.8366 54.4891 34.8285 54.4843 34.8221C54.4746 34.8076 54.4665 34.793 54.4568 34.7769C54.4504 34.7656 54.4246 34.7075 54.4407 34.7462C54.4568 34.785 54.4359 34.7301 54.4326 34.7204C54.4278 34.7043 54.423 34.6865 54.4181 34.6704C54.4149 34.6591 54.4068 34.601 54.4117 34.6446C54.4165 34.6898 54.4117 34.6301 54.41 34.6188C54.41 34.601 54.4084 34.5833 54.41 34.5671C54.41 34.5558 54.4165 34.4961 54.4117 34.5413C54.4068 34.5849 54.4149 34.5284 54.4181 34.5155C54.423 34.4961 54.4294 34.4784 54.4359 34.459C54.3584 34.5187 54.281 34.5768 54.2019 34.6365C54.2084 34.6365 54.2148 34.6365 54.2213 34.6381C54.2455 34.6398 54.2342 34.6381 54.1858 34.6333C54.1938 34.6365 54.2051 34.6365 54.2132 34.6398C54.2229 34.6414 54.2309 34.6462 54.239 34.6478C54.2745 34.6559 54.1761 34.6139 54.2229 34.6414C54.2374 34.6494 54.2535 34.6623 54.2697 34.6704C54.2148 34.6446 54.2309 34.6381 54.2519 34.6591C54.26 34.6656 54.2681 34.6736 54.2745 34.6817C54.281 34.6882 54.2858 34.6978 54.2923 34.7027C54.2439 34.6623 54.2632 34.664 54.2793 34.6882C54.2906 34.7059 54.3003 34.7237 54.31 34.7414C54.3148 34.7511 54.3326 34.793 54.3132 34.7479C54.2939 34.7027 54.3116 34.7446 54.3148 34.7543C54.3213 34.7737 54.3278 34.7947 54.331 34.814C54.3326 34.8237 54.3391 34.8382 54.3374 34.8479C54.3391 34.8366 54.331 34.7769 54.3326 34.8221C54.3342 34.8447 54.3342 34.8673 54.3342 34.8882C54.3342 34.8979 54.3326 34.9076 54.3326 34.9173C54.331 34.9576 54.3455 34.8527 54.3358 34.8899C54.331 34.9108 54.3261 34.9318 54.3197 34.9528C54.3068 34.9947 54.331 34.9383 54.331 34.9286C54.331 34.9383 54.3197 34.9528 54.3148 34.9609C54.31 34.9689 54.3052 34.9754 54.3003 34.9834C54.2826 35.0157 54.3423 34.9383 54.3165 34.9641C54.3084 34.9722 54.3019 34.9802 54.2955 34.9867C54.2745 35.0076 54.2584 35.0012 54.3132 34.9754C54.2939 34.9851 54.2761 34.9996 54.2551 35.0093C54.3358 35.0093 54.4181 35.0093 54.4988 35.0093C54.4714 34.9915 54.523 35.0302 54.523 35.0302C54.5198 35.0286 54.5101 35.0206 54.5085 35.0173C54.4778 34.9722 54.5343 35.0657 54.5133 35.0254C54.5069 35.0141 54.4875 34.9722 54.5069 35.0173C54.5262 35.0625 54.5101 35.0141 54.5053 35.0012C54.494 34.9705 54.5149 35.0399 54.5101 35.0367C54.5085 35.0367 54.5085 35.0189 54.5085 35.0173C54.5085 35.0028 54.5101 34.9883 54.5085 34.9738C54.5053 34.9512 54.4972 35.0319 54.5036 35.0093C54.5053 35.0028 54.5053 34.9964 54.5069 34.9899C54.5101 34.9754 54.5133 34.9609 54.5182 34.9463C54.5198 34.9431 54.5262 34.9302 54.5246 34.927C54.5246 34.9302 54.4972 34.9851 54.5117 34.9576C54.5182 34.9463 54.5246 34.935 54.5311 34.9237C54.5585 34.877 54.4956 34.9609 54.5246 34.9302C54.5327 34.9221 54.544 34.9124 54.552 34.9028C54.5633 34.8882 54.4988 34.9367 54.5295 34.9205C54.5343 34.9173 54.5408 34.9141 54.5456 34.9108C54.5472 34.9092 54.5617 34.9012 54.5617 34.9028C54.565 34.906 54.4988 34.9237 54.5295 34.9173C54.5424 34.9141 54.594 34.9044 54.544 34.9108C54.494 34.9173 54.5472 34.9141 54.5601 34.9141C54.686 34.9237 54.807 34.7963 54.8022 34.672C54.7973 34.5333 54.6973 34.4429 54.5617 34.4316Z" fill="black"/>
<path d="M51.1297 34.9221C51.1023 34.9947 51.1265 34.9366 51.1345 34.9189C51.162 34.864 51.1103 34.9366 51.1378 34.9124C51.1474 34.9044 51.1571 34.8914 51.1668 34.8818C51.2104 34.835 51.141 34.8931 51.1749 34.8737C51.2071 34.8559 51.2378 34.835 51.2701 34.8188C51.3298 34.7866 51.2491 34.8221 51.2894 34.8108C51.312 34.8043 51.333 34.7946 51.3556 34.7882C51.3959 34.7753 51.4379 34.7656 51.4798 34.7575C51.5057 34.7527 51.5299 34.7494 51.5557 34.7446C51.6186 34.7333 51.504 34.7478 51.5686 34.743C51.6702 34.7349 51.7703 34.7301 51.8735 34.7349C51.922 34.7365 51.9688 34.7414 52.0172 34.7462C52.0462 34.7495 52.0446 34.7494 52.0139 34.7446C52.0268 34.7462 52.0414 34.7478 52.0543 34.7511C52.0801 34.7559 52.1075 34.7607 52.1333 34.7656C52.2221 34.7833 52.306 34.8108 52.3915 34.8398C52.4173 34.8495 52.4141 34.8495 52.3834 34.8366C52.3947 34.8414 52.4044 34.8463 52.4157 34.8511C52.4367 34.8624 52.4561 34.8721 52.477 34.8834C52.4916 34.8914 52.5061 34.8995 52.519 34.9092C52.5335 34.9189 52.5851 34.9641 52.5335 34.9173C52.5593 34.9415 52.5819 34.9641 52.6077 34.9899C52.5593 34.9399 52.5981 34.9802 52.6093 34.9979C52.6465 35.0496 52.5997 34.9657 52.6126 35.0012C52.6578 35.1238 52.7772 35.2077 52.9111 35.1706C53.0289 35.1383 53.1257 34.9963 53.0805 34.8721C52.9498 34.5187 52.5722 34.3541 52.2237 34.2912C51.8397 34.2202 51.425 34.2266 51.0635 34.3848C50.878 34.4655 50.7376 34.6026 50.665 34.793C50.6182 34.9157 50.7166 35.0593 50.8344 35.0915C50.9683 35.1286 51.0829 35.0431 51.1297 34.9221Z" fill="black"/>
<path d="M48.0929 48.8764C48.4107 50.5997 48.7399 52.3214 49.0578 54.0463C49.1143 54.3529 49.5806 54.2222 49.5241 53.9173C49.2062 52.1939 48.8771 50.4722 48.5592 48.7473C48.5027 48.4424 48.0364 48.5714 48.0929 48.8764Z" fill="black"/>
<path d="M44.7739 56.7894C45.5888 57.7882 46.6973 58.5466 47.9285 58.9307C49.1483 59.3115 50.6457 59.2615 51.488 58.1723C51.8785 57.6672 52.0592 57.0153 51.8785 56.3925C51.793 56.094 51.3251 56.2215 51.4122 56.5216C51.5461 56.9831 51.4154 57.4526 51.1395 57.835C50.8232 58.2739 50.3456 58.5289 49.8196 58.6273C48.6917 58.8387 47.4734 58.3514 46.544 57.7431C46.0018 57.3881 45.5242 56.9476 45.116 56.4474C44.9191 56.2053 44.577 56.549 44.7739 56.7894Z" fill="black"/>
<path d="M46.9956 54.3029C45.942 54.5417 45.1432 55.3146 44.1945 55.7793C43.9153 55.9164 44.159 56.3344 44.4381 56.1972C45.3466 55.7519 46.1162 54.9983 47.1231 54.7692C47.4281 54.7014 47.299 54.2351 46.9956 54.3029Z" fill="black"/>
<path d="M40.7787 62.6983C40.4237 65.4463 40.1865 68.212 39.9444 70.9712C39.7056 73.7014 39.4797 76.4348 39.2958 79.1698C39.2667 79.5894 39.2393 80.0073 39.2183 80.4268C39.2103 80.5898 39.1602 80.8254 39.2167 80.9851C39.32 81.2772 39.7863 81.1513 39.683 80.856C39.6798 80.848 39.6814 80.9415 39.6879 80.877C39.6911 80.8496 39.6879 80.8189 39.6879 80.7899C39.6895 80.6898 39.6943 80.5898 39.6992 80.4914C39.7153 80.1412 39.7379 79.7911 39.7605 79.4393C39.8363 78.2888 39.9235 77.1383 40.0122 75.9878C40.2494 72.9478 40.5076 69.9095 40.8029 66.8759C40.9384 65.4818 41.0804 64.086 41.2595 62.6967C41.3031 62.3918 40.819 62.3934 40.7787 62.6983Z" fill="black"/>
<path d="M54.1537 58.2885C55.2025 60.3765 56.0512 62.5613 56.7967 64.7735C57.5841 67.11 58.2538 69.4884 58.804 71.8926C59.0896 73.1415 59.3429 74.3985 59.5495 75.6636C59.5995 75.9702 60.0658 75.8395 60.0158 75.5345C59.635 73.2045 59.1058 70.9003 58.4781 68.6251C57.8213 66.2386 57.0549 63.8796 56.1416 61.5786C55.6656 60.3797 55.1492 59.1969 54.5716 58.0448C54.4312 57.7657 54.0149 58.011 54.1537 58.2885Z" fill="black"/>
<path d="M49.3193 54.2948C50.4262 54.361 51.5122 54.6692 52.5481 55.05C53.4452 55.3791 54.3214 55.7777 55.1605 56.236C55.4041 56.3683 55.6494 56.5054 55.8785 56.662C55.8963 56.6749 55.9737 56.7313 55.9479 56.7104C55.9156 56.6845 55.9528 56.7152 55.9608 56.7217C55.9996 56.7588 56.0383 56.7959 56.077 56.833C56.3174 57.067 56.5514 57.3042 56.7821 57.5478C57.7067 58.5208 58.5555 59.5664 59.3139 60.6733C59.5236 60.9783 59.7269 61.2897 59.9222 61.6028C60.0948 61.8787 60.4127 62.2208 60.2417 62.5548C59.9173 63.1905 59.3494 63.7569 58.7846 64.1813C58.5377 64.3652 58.7798 64.7864 59.0283 64.5992C59.5736 64.1909 60.0497 63.7085 60.4385 63.1469C60.6273 62.8743 60.8355 62.5709 60.779 62.2224C60.7257 61.898 60.4918 61.5995 60.3207 61.3268C59.5607 60.115 58.7007 58.9645 57.7535 57.8915C57.1516 57.2106 56.5514 56.4828 55.7591 56.0181C54.941 55.5389 54.0745 55.1355 53.1951 54.7837C51.9591 54.2884 50.6521 53.8898 49.3161 53.8107C49.0079 53.7914 49.0095 54.2771 49.3193 54.2948Z" fill="black"/>
<path d="M59.2509 64.2636C59.2396 64.2378 59.2912 64.362 59.3041 64.3959C59.3299 64.4605 59.3541 64.5234 59.3783 64.5879C59.4332 64.7364 59.4864 64.8848 59.5381 65.0349C59.6639 65.4028 59.7817 65.7723 59.8963 66.1434C60.1819 67.0729 60.4465 68.0087 60.7031 68.9462C61.2824 71.0633 61.8229 73.1916 62.3263 75.3296C62.5426 76.2445 62.7523 77.161 62.9379 78.0824C62.9992 78.3873 63.4655 78.2582 63.4042 77.9533C63.0331 76.1009 62.5797 74.2646 62.1182 72.4332C61.597 70.363 61.0548 68.2943 60.4352 66.2499C60.2077 65.498 59.977 64.7412 59.6688 64.0183C59.6171 63.8973 59.4413 63.8731 59.338 63.9312C59.2121 64.0038 59.2008 64.1442 59.2509 64.2636Z" fill="black"/>
<path d="M37.9097 24.0272C38.0372 23.4415 38.4729 22.93 39.0877 22.8767C39.7621 22.8186 40.4447 23.1236 40.9401 23.5641C41.3983 23.9707 41.7646 24.5419 41.7582 25.1745C41.7517 25.7166 41.4548 26.2975 40.9304 26.5041C40.6432 26.617 40.769 27.0849 41.0595 26.9704C41.6 26.7574 41.9824 26.3104 42.1519 25.757C42.3294 25.1761 42.2245 24.5565 41.9356 24.0304C41.337 22.9413 39.9187 22.1167 38.6697 22.462C38.0469 22.6347 37.5757 23.2882 37.4434 23.8981C37.3773 24.2031 37.8436 24.3322 37.9097 24.0272Z" fill="black"/>
<path d="M33.8757 28.3838C34.526 26.6443 35.6926 24.6047 37.7176 24.3111C38.2695 24.232 38.8181 24.2998 39.3474 24.5015C39.5007 24.5596 39.7217 24.6677 39.8992 24.7887C39.9186 24.8016 39.9379 24.8161 39.9573 24.829C40.0122 24.8678 39.9444 24.8177 39.975 24.8419C40.0089 24.8694 40.0412 24.8968 40.0719 24.9275C40.2978 25.1405 40.4607 25.4164 40.5882 25.6971C40.7189 25.9892 40.8464 26.3297 40.8561 26.6524C40.8657 26.9493 40.7996 27.243 40.7108 27.5253C40.5414 28.0594 40.2429 28.7049 39.7427 29.0082C39.4764 29.1696 39.7201 29.5875 39.9863 29.4261C40.4882 29.1228 40.8109 28.5677 41.0336 28.0417C41.2611 27.5011 41.424 26.8767 41.2917 26.2909C41.0933 25.4132 40.6382 24.5854 39.8121 24.1804C38.4583 23.5172 36.8883 23.7721 35.7216 24.6951C34.5937 25.5874 33.9031 26.9364 33.4094 28.2563C33.2996 28.5483 33.7676 28.6742 33.8757 28.3838Z" fill="black"/>
<path d="M37.6981 26.0329C39.0745 26.6461 39.6248 28.5356 38.776 29.7877C38.6001 30.0459 39.0197 30.2879 39.1939 30.0314C40.1782 28.5807 39.5473 26.3298 37.9418 25.615C37.661 25.4891 37.4142 25.907 37.6981 26.0329Z" fill="black"/>
<path d="M35.9571 27.2544C36.6719 27.9369 37.5239 28.9115 37.1302 29.9813C37.0528 30.1895 36.9237 30.3863 36.7236 30.4928C36.5848 30.5671 36.3702 30.6203 36.2702 30.4606C36.1669 30.2976 36.225 30.0378 36.2282 29.8571C36.2331 29.6312 36.2072 29.4004 36.0765 29.21C35.9007 28.9551 35.4811 29.1971 35.6586 29.4537C35.7748 29.6231 35.7457 29.8297 35.7377 30.0249C35.728 30.2427 35.7312 30.467 35.8313 30.6655C36.0507 31.1012 36.5832 31.1189 36.9688 30.9091C37.8821 30.4138 37.8208 29.1068 37.4239 28.3064C37.156 27.7675 36.7317 27.3221 36.3008 26.9107C36.0749 26.6961 35.7312 27.0382 35.9571 27.2544Z" fill="black"/>
<path d="M39.6314 22.4651C39.4006 21.7439 39.8331 20.9629 40.5269 20.7805C41.1159 20.624 41.8097 20.6031 42.4019 20.7596C42.5229 20.7918 42.6423 20.8322 42.7504 20.8983C42.8311 20.9484 42.8989 21.0145 42.9182 21.0742C42.9328 21.1178 42.9312 21.1291 42.9328 21.1743C42.9328 21.1678 42.9086 21.2211 42.9279 21.1985C42.8957 21.2356 42.8989 21.2324 42.8408 21.2598C42.8247 21.2679 42.7262 21.2937 42.6794 21.3017C42.1647 21.3953 41.6338 21.2001 41.1223 21.2888C40.7447 21.3534 40.4172 21.6019 40.4204 22.0117C40.4236 22.3312 40.6092 22.5958 40.6721 22.8992C40.7367 23.2042 41.203 23.0751 41.1385 22.7701C41.0836 22.5119 40.8819 22.2489 40.9045 21.9794C40.9126 21.8746 41.0126 21.8165 41.1288 21.7826C41.1627 21.7729 41.1998 21.7632 41.2353 21.7568C41.2353 21.7568 41.182 21.7632 41.2111 21.76C41.2304 21.7584 41.2498 21.7568 41.2692 21.7568C41.3272 21.7552 41.387 21.7584 41.445 21.76C41.7581 21.7761 42.0711 21.8132 42.3858 21.8068C42.6714 21.8019 43.0151 21.7761 43.2361 21.5712C43.4604 21.3631 43.4604 21.0194 43.3039 20.7709C43.1361 20.5062 42.8214 20.3691 42.5294 20.2916C41.8533 20.1125 41.0562 20.1335 40.3817 20.3158C39.4248 20.5756 38.8633 21.6503 39.165 22.5926C39.2586 22.8895 39.7266 22.762 39.6314 22.4651Z" fill="black"/>
<path d="M31.3987 29.5166C29.577 31.4045 28.2393 33.699 27.3744 36.1694C26.5386 38.5559 26.1368 41.0876 26.061 43.6097C25.9867 46.0204 26.161 48.5021 26.7742 50.8418C27.4067 53.2476 28.5201 55.5163 30.0465 57.4801C31.5665 59.4325 33.5125 61.059 35.7247 62.174C36.0071 62.316 36.2943 62.4499 36.5848 62.5774C36.8671 62.7 37.114 62.2837 36.8284 62.1595C34.5888 61.1865 32.5976 59.7165 30.9953 57.8754C29.4027 56.0472 28.2119 53.8753 27.4841 51.563C26.7693 49.2911 26.5305 46.882 26.5289 44.5084C26.5273 42.0558 26.8306 39.5967 27.5342 37.2425C28.2587 34.814 29.4269 32.5066 31.0824 30.5784C31.2938 30.3315 31.5133 30.0927 31.7392 29.8587C31.957 29.6344 31.6149 29.2923 31.3987 29.5166Z" fill="black"/>
<path d="M31.9812 32.0435C30.5725 35.7741 30.0368 39.8355 30.2918 43.8081C30.3547 44.8005 30.4693 45.7896 30.6339 46.7691C30.792 47.713 30.9582 48.6876 31.3213 49.5783C31.6859 50.4739 32.199 51.2952 32.7783 52.0665C33.3415 52.8168 33.9498 53.5639 34.621 54.2222C36.0103 55.5841 38.0273 56.4054 39.9701 55.9504C40.2734 55.8794 40.1443 55.413 39.841 55.484C38.1774 55.8729 36.4363 55.2033 35.1922 54.0947C34.5339 53.5074 33.9595 52.7974 33.4141 52.1052C32.8267 51.3613 32.291 50.5642 31.8973 49.7009C31.5149 48.8651 31.339 47.9567 31.1744 47.0579C31.0001 46.1123 30.8775 45.1587 30.8033 44.2002C30.6548 42.2817 30.6952 40.3486 30.9243 38.4381C31.1809 36.3001 31.6875 34.1879 32.4492 32.1726C32.5589 31.8805 32.0909 31.7546 31.9812 32.0435Z" fill="black"/>
<path d="M37.2352 55.6712C37.574 58.2287 37.3062 60.8347 36.4477 63.268C36.3993 63.4051 36.53 63.5923 36.6817 63.5745C37.2352 63.51 37.7902 63.4471 38.3437 63.3825C38.6454 63.347 38.6632 62.8984 38.3437 62.8984C37.9468 62.8984 37.5563 62.9581 37.1803 63.0808C36.9754 63.1469 36.9254 63.51 37.1803 63.5471C37.5046 63.5939 37.8064 63.5471 38.0855 63.3728C38.3502 63.2083 38.1065 62.7887 37.8419 62.9549C37.6805 63.055 37.4998 63.1082 37.3094 63.0808C37.3094 63.2357 37.3094 63.3922 37.3094 63.5471C37.6482 63.4374 37.9887 63.3825 38.3453 63.3825C38.3453 63.2212 38.3453 63.0598 38.3453 62.8984C37.7919 62.963 37.2368 63.0259 36.6833 63.0905C36.7608 63.1921 36.8382 63.2954 36.9173 63.397C37.787 60.9299 38.0662 58.2658 37.7225 55.6712C37.7047 55.5405 37.624 55.4308 37.4804 55.4292C37.3594 55.4275 37.2174 55.5405 37.2352 55.6712Z" fill="black"/>
<path d="M38.9923 56.0697C39.8008 55.9681 40.6075 55.8341 41.4192 55.7696C42.021 55.7212 42.7084 55.655 43.2942 55.8454C43.5394 55.9245 43.7573 56.0713 43.9654 56.2214C44.0913 56.3118 44.2446 56.4021 44.3462 56.5199C44.4188 56.6038 44.4543 56.72 44.485 56.8233C44.656 57.4009 44.4866 57.9996 44.2107 58.5191C43.8734 59.1565 43.3587 59.668 42.8537 60.1731C42.6326 60.3941 42.9747 60.7362 43.1957 60.5152C43.6863 60.023 44.1849 59.5228 44.5399 58.9193C44.8771 58.3465 45.1224 57.6462 45.0142 56.9766C44.9691 56.6958 44.8819 56.3699 44.6738 56.1633C44.443 55.9326 44.1268 55.7244 43.8412 55.5647C43.2925 55.2565 42.6633 55.2371 42.0485 55.2516C41.0222 55.2758 40.0073 55.4566 38.9907 55.5857C38.6874 55.6244 38.6842 56.1085 38.9923 56.0697Z" fill="black"/>
<path d="M43.6183 25.7457C44.012 27.2076 44.0765 28.7824 43.5973 30.2331C43.1665 31.5352 42.258 32.6502 41.0317 33.2779C40.3782 33.6119 39.6521 33.7781 38.9179 33.741C38.6839 33.7297 38.5807 34.0863 38.7953 34.1928C39.1325 34.3574 39.1793 34.7721 39.1374 35.1093C39.089 35.5046 38.9115 35.8871 38.692 36.2146C38.2434 36.8794 37.498 37.3699 36.6976 37.4764C36.5669 37.4942 36.4572 37.5749 36.4556 37.7185C36.454 37.8363 36.5685 37.9783 36.6976 37.9605C37.7158 37.8266 38.6275 37.2376 39.1712 36.3647C39.6069 35.6644 40.0055 34.2509 39.0389 33.7765C38.9986 33.9266 38.9583 34.0766 38.9163 34.2283C40.3588 34.2993 41.7514 33.6329 42.7373 32.6018C43.8216 31.4674 44.3476 29.9362 44.4122 28.3855C44.4509 27.4545 44.3267 26.5186 44.0846 25.6198C44.0039 25.3165 43.5376 25.4439 43.6183 25.7457Z" fill="black"/>
<path d="M37.3433 40.0581C37.9161 39.5628 38.8036 39.9581 39.3522 40.2937C40.0267 40.7068 40.6382 41.2215 41.1481 41.8266C42.1292 42.99 42.6601 44.5246 42.3615 46.0429C42.1986 46.8755 41.8065 47.642 41.1804 48.2197C40.9803 48.4052 41.2401 48.7473 41.4741 48.6005C41.9259 48.3133 42.489 48.3278 42.9666 48.5521C43.5056 48.8054 43.867 49.275 44.0187 49.8478C44.3414 51.0757 43.7444 52.3924 42.8731 53.246C42.3809 53.7284 41.779 54.0883 41.1207 54.2916C40.8238 54.3836 40.9513 54.8515 41.2498 54.7579C42.6181 54.3352 43.7589 53.3041 44.2979 51.9761C44.8303 50.661 44.6625 48.8893 43.2861 48.1696C42.6472 47.8356 41.8565 47.7856 41.232 48.1826C41.3305 48.31 41.4273 48.4359 41.5257 48.5634C42.7795 47.4064 43.1812 45.546 42.7795 43.9211C42.3535 42.2042 41.082 40.7843 39.5991 39.8774C38.8343 39.4095 37.7644 39.0577 37.0044 39.7177C36.7656 39.921 37.1093 40.2615 37.3433 40.0581Z" fill="black"/>
<path d="M52.1529 30.5202C53.0129 30.3169 53.6681 31.1366 54.107 31.7465C54.1828 31.853 54.3183 31.903 54.4377 31.8336C54.5426 31.7723 54.6007 31.6093 54.5249 31.5029C54.2199 31.0801 53.902 30.6622 53.468 30.3637C53.05 30.0764 52.524 29.9361 52.0238 30.0555C51.7205 30.1265 51.8495 30.5928 52.1529 30.5202Z" fill="black"/>
<path d="M53.5323 36.2162C53.2435 35.787 53.1192 35.2884 53.0757 34.7785C53.0305 34.2718 53.0095 33.7361 53.0821 33.2311C53.1467 32.7776 53.3241 32.3113 53.7017 32.0289C54.139 31.7014 54.6731 31.8289 55.1217 32.0612C55.9317 32.4791 56.6126 33.1343 57.087 33.9104C57.555 34.6785 57.96 35.7386 57.7502 36.6486C57.4791 37.8282 56.1173 38.1751 55.1088 37.7297C54.8264 37.6055 54.5795 38.0218 54.8651 38.1477C55.9349 38.6204 57.2629 38.451 57.9438 37.4215C58.5877 36.4502 58.223 35.0883 57.7534 34.1218C57.2839 33.152 56.5207 32.3178 55.5945 31.7692C55.0797 31.4658 54.444 31.2076 53.8469 31.4142C53.3451 31.5868 52.9772 32.0096 52.7804 32.492C52.5206 33.131 52.5383 33.8684 52.5754 34.5445C52.6126 35.2158 52.7336 35.8951 53.116 36.4615C53.287 36.718 53.7066 36.476 53.5323 36.2162Z" fill="black"/>
<path d="M42.7601 47.2289C42.5035 46.9965 42.1324 47.3402 42.3454 47.6129C42.4277 47.7178 42.5551 47.742 42.6778 47.7727C42.8068 47.8049 42.9375 47.8388 43.0666 47.8711C43.5781 48.0002 44.0897 48.1293 44.6012 48.2584C44.9029 48.3342 45.032 47.8679 44.7302 47.792C44.3753 47.7017 44.0219 47.6129 43.6669 47.5226C43.4894 47.4774 43.3119 47.4322 43.1344 47.3886C43.0521 47.3677 42.9714 47.3467 42.8891 47.3273C42.8488 47.3176 42.8069 47.3063 42.7665 47.2967C42.7391 47.2902 42.7116 47.2821 42.6842 47.2757C42.6326 47.2579 42.6487 47.2741 42.7342 47.3257C42.7455 47.366 42.7568 47.4064 42.7665 47.4483C42.7665 47.4419 42.7665 47.4354 42.7649 47.429C42.7536 47.4693 42.7423 47.5096 42.7326 47.5516C42.7165 47.5677 42.7004 47.5839 42.6842 47.6C42.6439 47.6113 42.6035 47.6226 42.5616 47.6323C42.5664 47.6323 42.5729 47.6323 42.5777 47.6323C42.5212 47.6081 42.4632 47.5855 42.4067 47.5613C42.4115 47.5645 42.4147 47.5694 42.4196 47.5726C42.6471 47.7807 42.9908 47.4386 42.7601 47.2289Z" fill="black"/>
<path d="M33.1012 7.28781C31.4909 6.35515 29.5191 5.30632 27.5989 5.80815C26.0031 6.22445 25.0801 7.62666 24.6267 9.12407C24.3653 9.99056 24.2362 10.8926 24.1442 11.7913C24.1136 12.1011 24.5976 12.0995 24.6283 11.7913C24.7719 10.3778 25.0091 8.85782 25.8207 7.6557C26.2144 7.07159 26.7727 6.59881 27.4408 6.36161C28.2847 6.06148 29.1883 6.14539 30.0354 6.39388C31.0342 6.68755 31.9588 7.18615 32.856 7.70572C33.1254 7.86224 33.3707 7.44432 33.1012 7.28781Z" fill="black"/>
<path d="M67.7431 11.1991C69.4245 10.2891 72.074 9.91955 73.2825 11.7752C73.7214 12.4497 73.9247 13.321 73.6746 14.102C73.5633 14.4521 73.331 14.8458 72.9921 15.0169C72.8695 15.0782 72.6645 15.1508 72.529 15.083C72.3031 14.9717 72.5435 14.7167 72.6613 14.6296C73.1196 14.294 73.8263 14.2343 74.3733 14.273C74.9752 14.315 75.5512 14.5247 76.0466 14.8652C76.3032 15.0427 76.5468 14.6232 76.2903 14.4473C75.2479 13.7292 73.7247 13.5259 72.5742 14.1181C72.3208 14.2488 72.0643 14.4682 71.982 14.7506C71.9045 15.0153 72.003 15.317 72.2353 15.4703C72.6678 15.7575 73.2729 15.4977 73.594 15.1621C74.3104 14.415 74.4121 13.2903 74.091 12.3415C73.7247 11.2588 72.8888 10.4649 71.7948 10.1374C70.3603 9.70978 68.7855 10.0857 67.4994 10.7812C67.2251 10.9297 67.4688 11.3476 67.7431 11.1991Z" fill="black"/>
</svg>
