<svg width="16" height="16" viewBox="0 0 16 16" fill="none" xmlns="http://www.w3.org/2000/svg">
<rect width="16" height="16" rx="8" fill="#4AD3A5"/>
<g clip-path="url(#clip0)">
<path d="M11.8367 7.34705C11.8367 10.2042 8.16322 12.6532 8.16322 12.6532C8.16322 12.6532 4.48975 10.2042 4.48975 7.34705C4.48975 6.37279 4.87677 5.43843 5.56568 4.74952C6.25459 4.06061 7.18895 3.67358 8.16322 3.67358C9.13748 3.67358 10.0718 4.06061 10.7608 4.74952C11.4497 5.43843 11.8367 6.37279 11.8367 7.34705Z" stroke="white" stroke-width="0.816327" stroke-linecap="round" stroke-linejoin="round"/>
<path d="M8.16321 8.57154C8.83948 8.57154 9.3877 8.02332 9.3877 7.34705C9.3877 6.67078 8.83948 6.12256 8.16321 6.12256C7.48694 6.12256 6.93872 6.67078 6.93872 7.34705C6.93872 8.02332 7.48694 8.57154 8.16321 8.57154Z" stroke="white" stroke-width="0.816327" stroke-linecap="round" stroke-linejoin="round"/>
</g>
<defs>
<clipPath id="clip0">
<rect width="8.4898" height="9.79592" fill="white" transform="translate(3.91833 3.26538)"/>
</clipPath>
</defs>
</svg>
