<svg width="16" height="16" viewBox="0 0 16 16" fill="none" xmlns="http://www.w3.org/2000/svg">
<rect width="16" height="16" rx="8" fill="#053E93"/>
<g clip-path="url(#clip0)">
<path d="M11.8367 7.34693C11.8367 10.2041 8.16322 12.6531 8.16322 12.6531C8.16322 12.6531 4.48975 10.2041 4.48975 7.34693C4.48975 6.37267 4.87677 5.43831 5.56568 4.7494C6.25459 4.06049 7.18895 3.67346 8.16322 3.67346C9.13748 3.67346 10.0718 4.06049 10.7608 4.7494C11.4497 5.43831 11.8367 6.37267 11.8367 7.34693Z" stroke="white" stroke-width="0.816327" stroke-linecap="round" stroke-linejoin="round"/>
<path d="M8.16321 8.57142C8.83948 8.57142 9.3877 8.02319 9.3877 7.34693C9.3877 6.67066 8.83948 6.12244 8.16321 6.12244C7.48694 6.12244 6.93872 6.67066 6.93872 7.34693C6.93872 8.02319 7.48694 8.57142 8.16321 8.57142Z" stroke="white" stroke-width="0.816327" stroke-linecap="round" stroke-linejoin="round"/>
</g>
<defs>
<clipPath id="clip0">
<rect width="8.4898" height="9.79592" fill="white" transform="translate(3.91833 3.26532)"/>
</clipPath>
</defs>
</svg>
